<?xml version="1.0" encoding="UTF-8"?><svg id="_レイヤー_2" xmlns="http://www.w3.org/2000/svg" viewBox="0 0 643.01 494.5"><g id="_レイヤー_1-2"><path d="M558.12,159.44c12.91,0,23.42,10.5,23.42,23.41v3.86h-18.62c-42.48,0-77.03,34.55-77.03,77.02s34.55,77.02,77.03,77.02h.58c42.47,0,77.02-34.55,77.02-77.02v-80.88c0-34.31-21.08-63.79-50.97-76.17l33.52-32.06V4.32h-129.25v58.98h55.75l-88.45,84.59v81.62l73.26-70.07h23.74ZM581.54,263.73c0,9.95-8.09,18.04-18.04,18.04h-.58c-9.95,0-18.04-8.09-18.04-18.04s8.09-18.04,18.04-18.04h18.62v18.04Z"/><path d="M118.18,47.6h26.26l-32.18,36.16V1.06H2.15v81.69h-.07v44.29h31.47v46.58c-10.02-6.62-21.22-11.87-33.55-15.72v50.84c14.73,7.46,25.62,18.6,33.55,34.17v17.65L0,283.03v49.44l100.35-67.19v67.79h47.32v-69.78h23.58v69.78h47.32s0-259.7,0-259.7h-11.96v-.03h-21.76,0s38.86-43.69,38.86-43.69V.28h-105.54v47.32ZM171.25,117.64v30.38h-23.58v-30.38h23.58ZM51.26,50.17h11.89v32.58h-11.89v-32.58ZM100.35,127.04v15.04l-19.48,13.05v-28.09h19.48ZM80.87,228.88h0s0-24.3,0-24.3l19.48-13.05v24.31l-19.48,13.04ZM147.67,219v-26.7h23.58v26.7h-23.58Z"/><rect x="376.69" width="38.5" height="95.66"/><rect x="421.82" width="38.5" height="95.66"/><path d="M312.44,265.41c-1.76-3.75-4.95-13.5,3.04-23.01l114.55-136.28h-77.05l-19.47,23.17-32.45-97.27h-62.18l50.11,150.22-4.44,5.28-14.22,16.93c-20.39,24.25-24.74,57.16-11.36,85.88,13.37,28.71,41.36,46.55,73.04,46.55h114.55v-58.97h-114.55c-12.42,0-17.83-8.74-19.57-12.49Z"/><polygon points="585.98 463.82 585.72 359.79 555.05 359.86 555.38 494.5 643.01 494.5 643.01 463.82 585.98 463.82"/><path d="M9.35,377.15c-5.38,11.61-3.57,25.35,4.61,35.01l40.57,47.89c.74.87.31,2,.03,2.45H2.08v30.67h52.81c11.9,0,22.49-6.9,27.64-18.02,5.37-11.58,3.56-25.29-4.6-34.93l-40.57-47.89c-.79-.93-.31-2.13-.02-2.57h52.35v-30.67h-52.64c-11.93,0-22.54,6.92-27.71,18.06Z"/><polygon points="118.17 389.76 146.64 389.76 146.64 463.13 118.17 463.13 118.17 493.8 205.79 493.8 205.79 463.13 177.32 463.13 177.32 389.76 205.79 389.76 205.79 359.09 118.17 359.09 118.17 389.76"/><path d="M397.68,359.04h-57.25v134.77h30.67v-104.09h26.22v104.09h30.67v-104.45c0-16.72-13.6-30.32-30.32-30.32Z"/><path d="M448.15,389.43v46.57h0v30.67h0v27.13h30.67v-27.13h25.75v27.13h30.67v-134.77h-56.7c-16.76,0-30.4,13.63-30.4,30.4ZM504.57,389.71v46.29h-25.75v-46.29h25.75Z"/><path d="M232.93,390.12v103.62h87.35v-30.67h-.02v-36.67h-30.67v36.67h-25.99v-72.95c0-.23.18-.41.41-.41h56.27v-30.67h-56.27c-17.14,0-31.08,13.94-31.08,31.08Z"/></g></svg>